<svg width="146" height="41" viewBox="0 0 146 41" fill="none" xmlns="http://www.w3.org/2000/svg">
<path d="M0 31.9316V0.5H4.94483V12.1075C6.45392 10.2644 9.00984 9.04757 11.9028 9.04757C16.6388 9.04757 19.7405 12.2328 19.7405 17.2194V31.9286H14.7957V17.4729C14.7957 15.0004 13.1613 13.3661 10.5219 13.3661C7.1697 13.3661 4.98956 15.588 4.94781 18.4779V31.9316H0Z" fill="#2F425F"/>
<path d="M22.4343 25.7728C22.4761 20.5775 27.6297 19.4859 31.9482 18.9849C35.3004 18.6091 37.7728 18.4808 37.8146 16.7212C37.7728 14.5411 36.0967 13.1185 33.2456 13.1185C30.3944 13.1185 28.2172 14.7111 27.922 17.0165H22.9354C23.3977 12.3222 27.5879 9.05347 33.3291 9.05347C39.0702 9.05347 42.6312 12.3222 42.6312 17.0582V27.1149C42.6312 27.7442 42.9682 28.0782 43.7197 28.0782H44.9336V31.9345H42.5864C40.3228 31.9345 38.9419 31.0129 38.5632 29.3368C38.4797 29.128 38.3962 28.8328 38.3544 28.5822C37.0541 30.9712 34.6234 32.3967 30.8537 32.3967C25.7418 32.3967 22.3896 29.9243 22.4314 25.7758L22.4343 25.7728ZM37.8146 23.5927V20.491C36.9765 21.7913 34.8382 22.0836 32.491 22.3759C29.7263 22.7099 27.4209 23.0887 27.4209 25.4358C27.4209 27.3624 28.9718 28.4958 31.8617 28.4958C35.2557 28.4958 37.8116 26.5691 37.8116 23.5927H37.8146Z" fill="#2F425F"/>
<path d="M47.8106 40.3063V9.71279H51.7921L52.2961 13.3573C53.7635 10.7596 56.6534 9.04175 60.1757 9.04175C66.042 9.04175 70.1906 13.8196 70.1906 20.691C70.1906 27.5625 66.042 32.5491 60.1339 32.5491C56.9487 32.5491 54.3093 31.1235 52.8002 28.8181V40.3003H47.8136L47.8106 40.3063ZM65.1175 20.694C65.1175 16.295 62.6451 13.235 59.0006 13.235C55.3561 13.235 52.7972 16.2532 52.7972 20.5687C52.7972 25.1378 55.3531 28.3647 59.0423 28.3647C62.7316 28.3647 65.1175 25.2213 65.1175 20.697V20.694Z" fill="#2F425F"/>
<path d="M72.9367 40.3063V9.71279H76.9182L77.4223 13.3573C78.8896 10.7596 81.7796 9.04175 85.3018 9.04175C91.1682 9.04175 95.3167 13.8196 95.3167 20.691C95.3167 27.5625 91.1682 32.5491 85.26 32.5491C82.0748 32.5491 79.4354 31.1235 77.9263 28.8181V40.3003H72.9397L72.9367 40.3063ZM90.2436 20.694C90.2436 16.295 87.7712 13.235 84.1237 13.235C80.4762 13.235 77.9203 16.2532 77.9203 20.5687C77.9203 25.1378 80.4762 28.3647 84.1655 28.3647C87.8547 28.3647 90.2406 25.2213 90.2406 20.697L90.2436 20.694Z" fill="#2F425F"/>
<path d="M123.025 20.6192C123.025 13.369 127.928 9.05347 134.424 9.05347C141.591 9.05347 145.781 14.0818 145.781 20.6192C145.781 28.12 141.045 32.5638 134.424 32.5638C127.215 32.5638 123.025 27.4937 123.025 20.6192ZM140.753 20.6192C140.753 16.2202 138.28 13.2855 134.424 13.2855C130.568 13.2855 128.053 16.2202 128.053 20.6192C128.053 25.4805 130.776 28.3287 134.424 28.3287C138.405 28.3287 140.753 25.06 140.753 20.6192Z" fill="#2F425F"/>
<path d="M105.48 13.7509C106.989 13.7509 108.212 12.5278 108.212 11.019C108.212 9.51021 106.989 8.28711 105.48 8.28711C103.971 8.28711 102.748 9.51021 102.748 11.019C102.748 12.5278 103.971 13.7509 105.48 13.7509Z" fill="#2F425F"/>
<path d="M112.879 13.7509C114.388 13.7509 115.611 12.5278 115.611 11.019C115.611 9.51021 114.388 8.28711 112.879 8.28711C111.37 8.28711 110.147 9.51021 110.147 11.019C110.147 12.5278 111.37 13.7509 112.879 13.7509Z" fill="#2F425F"/>
<path d="M120.547 16.2595H115.489V21.1208C115.206 25.1202 112.912 27.9774 109.193 27.9774C105.474 27.9774 102.823 25.1292 102.823 20.2679V16.2595H97.7945V20.2679C97.7945 27.1393 101.985 32.2124 109.193 32.2124C111.499 32.2124 113.571 31.6726 115.298 30.6556C114.666 33.9899 112.483 36.2685 109.16 36.2685H103.038V40.5005H109.16C115.781 40.5005 120.517 36.0597 120.517 28.556V21.2372C120.535 20.921 120.547 20.5989 120.547 20.2679V16.2595Z" fill="#2F425F"/>
</svg>
