<svg width="100" height="111" viewBox="0 0 100 111" fill="none" xmlns="http://www.w3.org/2000/svg">
<path fill-rule="evenodd" clip-rule="evenodd" d="M97.4973 50.5L100 43.3121L95.5808 37.1244L95.95 29.5213L89.9612 24.8268L88.1754 17.4313L81.1084 14.6142L77.313 8.01905L69.7307 7.30324L64.2341 2.04661L56.7586 3.50128L50 0L43.2405 3.50128L35.7736 2.04661L30.2693 7.30324L22.6947 8.01905L18.8993 14.6142L11.8246 17.4313L10.0465 24.8268L4.05687 29.5213L4.42684 37.1244L0 43.3121L2.50179 50.5L0 57.6879L4.42684 63.8756L4.05687 71.4787L10.0465 76.1732L11.5503 82.4284L11.8246 83.5696L16.4146 85.3967H16.4155L18.8993 86.3858L22.1171 91.9773L22.6947 92.981L25.0812 93.2065L29.2756 93.6028L30.2693 93.6968L31.551 94.9208L31.6996 95.0626L35.7736 98.9534L36.0598 98.8979L37.5132 98.6143L43.2405 97.4987L43.966 97.8746L47.6221 99.7683L50 101L50.2837 100.853L51.068 100.446L56.3502 97.7105L56.7586 97.4987L58.2675 97.7925L61.2777 98.3785L62.5098 98.6177L64.2341 98.9534L68.021 95.3317L69.7307 93.6968L69.8119 93.6891L77.313 92.981L78.2827 91.2957L81.1084 86.3858L83.5888 85.3975C83.5888 85.3975 83.5905 85.3984 83.5905 85.3975L88.1754 83.5696L88.4506 82.4293L89.9612 76.1732L95.95 71.4787L95.5808 63.8756L100 57.6879L97.4973 50.5ZM77.536 82.4301C69.8913 76.6132 60.3524 73.1571 50 73.1571C39.6476 73.1571 30.113 76.6123 22.4674 82.4276C21.6754 81.7434 20.9226 81.0438 20.1852 80.3066C12.556 72.6796 7.8369 62.1442 7.8369 50.5C7.8369 38.8558 12.556 28.3203 20.1852 20.6942C27.8137 13.0672 38.36 8.34961 50 8.34961C61.64 8.34961 72.1863 13.0672 79.8148 20.6942C87.4517 28.3203 92.1708 38.8567 92.1708 50.5C92.1708 62.1433 87.4517 72.6796 79.8148 80.3066C79.0834 81.0446 78.3212 81.7451 77.536 82.4301Z" fill="#006A63"/>
<path fill-rule="evenodd" clip-rule="evenodd" d="M96 50.7407C96 63.541 90.7173 75.1073 82.1961 83.4088C81.6374 83.9532 81.0639 84.4839 80.4775 85C79.9438 84.5303 79.3989 84.0726 78.8427 83.6277C78.8177 83.6071 78.7926 83.5865 78.7667 83.5676C78.7184 83.5281 78.6691 83.4886 78.6199 83.4508C78.3695 83.2516 78.1164 83.0558 77.8617 82.8635C77.8513 82.8557 77.8418 82.8489 77.8314 82.8411C78.6251 82.1524 79.3954 81.4483 80.1347 80.7063C87.8536 73.0386 92.6233 62.447 92.6233 50.7407C92.6233 39.0344 87.8536 28.4427 80.1347 20.7759C72.4244 13.1082 61.7727 8.36539 50 8.36539C38.2273 8.36539 27.5756 13.1082 19.8653 20.7759C12.1542 28.4427 7.38447 39.0352 7.38447 50.7407C7.38447 62.4461 12.1542 73.0386 19.8653 80.7063C20.6106 81.4474 21.3714 82.1507 22.172 82.8386C22.0148 82.9562 21.8577 83.0764 21.7022 83.1992C21.545 83.3195 21.3887 83.4423 21.2333 83.5676C21.2082 83.5865 21.1832 83.6063 21.1581 83.6269C20.602 84.0717 20.057 84.5303 19.5225 85C18.9361 84.4839 18.3635 83.9532 17.8048 83.4079C9.28959 75.1073 4 63.541 4 50.7407C4 25.48 24.5953 5 50 5C75.4047 5 96 25.48 96 50.7407Z" fill="white"/>
<path fill-rule="evenodd" clip-rule="evenodd" d="M100 82V91.0421V91.6667V92.2913V92.9158V93.5404V93.8485V94.4731V95.0977V95.7222V96.3468V96.6549V96.9706V97.2786V97.9032V98.5278V99.1524V99.777V100.085V100.401V100.709V101.333V101.958V111C95.3887 105.48 4.61131 105.48 0 111V101.958V101.333V100.709V100.401V100.085V99.777V99.1524V98.5278V97.9032V97.2786V96.9706V96.6549V96.3468V95.7222V95.0977V94.4731V93.8485V93.5404V92.9158V92.2913V91.6667V91.0421V82C4.61131 87.5195 95.3887 87.5195 100 82Z" fill="#006A63"/>
<path d="M93 49.7582C93 61.5668 88.1862 72.2587 80.4074 79.9944C79.712 80.6851 78.9877 81.3531 78.2464 81.9992H78.2456C78.1981 81.9612 78.1506 81.9224 78.1022 81.8845C77.8588 81.6871 77.6112 81.4923 77.3576 81.3076C77.3475 81.3 77.3381 81.2932 77.3279 81.2856C78.1073 80.6092 78.8638 79.9176 79.5898 79.1889C87.1702 71.6581 91.8542 61.2556 91.8542 49.7582C91.8542 38.2609 87.1702 27.8583 79.5898 20.3284C72.018 12.7976 61.5575 8.13944 49.9962 8.13944C38.4349 8.13944 27.9744 12.7976 20.4025 20.3284C12.8298 27.8583 8.14579 38.2617 8.14579 49.7582C8.14579 61.2547 12.8298 71.6581 20.4025 79.1889C21.1345 79.9168 21.8816 80.6075 22.6678 81.2831C22.6687 81.284 22.6704 81.2848 22.6712 81.2856C22.6017 81.3362 22.5321 81.3885 22.4626 81.44C22.3769 81.5058 22.2913 81.5699 22.2065 81.6373C22.0529 81.7571 21.9003 81.8785 21.7468 82H21.7459C21.0047 81.3531 20.2872 80.6851 19.5926 79.9944C11.8138 72.2587 7 61.5668 7 49.7582C7 37.9497 11.8138 27.2586 19.5926 19.5229C27.3705 11.7796 38.1219 7 49.9962 7C61.8704 7 72.621 11.7796 80.4074 19.5229C88.1862 27.2586 93 37.9497 93 49.7582Z" fill="#006A63"/>
<path fill-rule="evenodd" clip-rule="evenodd" d="M67.9833 21.0601C67.9611 21.02 67.9241 21 67.8641 21H65.8271C65.7679 21 65.7383 21.02 65.7087 21.0601L64.3008 23.1974L62.8781 21.0601C62.8559 21.02 62.8189 21 62.7745 21H60.7219C60.6775 21 60.6331 21.02 60.6183 21.0601C60.5813 21.1001 60.5813 21.1334 60.6183 21.1735L63.2704 25.2013V27.8866C63.2704 27.9533 63.3378 28 63.397 28H65.1676C65.2342 28 65.286 27.9533 65.286 27.8866V25.2414L67.9833 21.1735C68.0056 21.1334 68.0056 21.1001 67.9833 21.0601ZM60.8181 27.8265L57.9292 21.0801C57.9061 21.0334 57.8617 21 57.8173 21H56.18C56.1282 21 56.0838 21.0334 56.0616 21.0801L53.1422 27.8332C53.1274 27.8732 53.1274 27.9133 53.1496 27.9533C53.1718 27.98 53.2162 28 53.2532 28H55.0912C55.143 28 55.18 27.9666 55.2022 27.9199L55.6841 26.6707H58.2104L58.7293 27.9199C58.7441 27.9666 58.7959 28 58.8329 28H60.7071C60.7811 28 60.8403 27.9533 60.8403 27.8866C60.8403 27.8666 60.8255 27.8465 60.8181 27.8265ZM56.254 25.1279L56.958 23.2708L57.6619 25.1279H56.254ZM52.3791 22.8238C52.1348 22.376 51.8166 22.0157 51.4309 21.748C51.0534 21.4811 50.6085 21.2876 50.1118 21.1735C49.6381 21.06 49.134 21 48.6373 21H46.1258C46.0518 21 46 21.06 46 21.1134V27.8866C46 27.9533 46.0518 28 46.1258 28H48.7121C49.2006 28 49.6899 27.9333 50.1636 27.7998C50.6381 27.6664 51.0756 27.4529 51.4531 27.1652C51.8388 26.885 52.1422 26.5106 52.3791 26.0635C52.6093 25.6224 52.7277 25.0879 52.7277 24.4867C52.7277 23.8254 52.6093 23.2708 52.3791 22.8238ZM50.5567 25.3822C50.4383 25.6091 50.2829 25.8026 50.0822 25.9494C49.875 26.0902 49.6529 26.197 49.3931 26.2504C49.1266 26.3171 48.838 26.3571 48.5559 26.3571H47.986V22.6369H48.5929C48.875 22.6369 49.1488 22.6636 49.4005 22.717C49.6529 22.7771 49.8898 22.8838 50.0822 23.0239C50.2829 23.1574 50.4383 23.3516 50.5567 23.5785C50.6751 23.8187 50.7343 24.1263 50.7343 24.4867C50.7343 24.847 50.6751 25.1413 50.5567 25.3822Z" fill="#006A63"/>
<path fill-rule="evenodd" clip-rule="evenodd" d="M77.2175 70.7699L71.4726 62.3845L76.5374 56.1944C76.5843 56.1256 76.6077 56.0645 76.5609 56.0263C76.5374 55.9651 76.475 55.9184 76.4125 55.9184H71.3165C71.2774 55.9184 71.215 55.9422 71.1915 55.9804L68.284 59.5379V55.9422C68.284 55.8343 68.2215 55.7732 68.1356 55.7732H64.1498C64.064 55.7732 63.9781 55.8343 63.9781 55.9422V70.8386C63.9781 70.938 64.064 71 64.1498 71H68.1356C68.2215 71 68.284 70.938 68.284 70.8386V66.2867L68.8391 65.6209L72.4892 70.9151C72.5282 70.9839 72.5751 71 72.6375 71H77.0917C77.1307 71 77.201 70.9609 77.2175 70.9151C77.2643 70.8769 77.2409 70.8157 77.2175 70.7699ZM63.0638 68.4667L60.8832 66.2247C60.8363 66.1636 60.7504 66.1407 60.688 66.1407H60.6724C60.6021 66.1407 60.524 66.1636 60.4772 66.2247C60.2274 66.539 59.9299 66.7835 59.5473 66.9899C59.1171 67.2201 58.594 67.3423 57.9999 67.3423C57.4681 67.3423 56.9997 67.243 56.5773 67.0519C56.1314 66.8676 55.7645 66.6001 55.4523 66.2485C55.1547 65.9114 54.8971 65.4986 54.7254 65.001C54.538 64.5186 54.4513 63.9607 54.4513 63.3789C54.4513 62.7972 54.538 62.2537 54.7254 61.7798C54.8971 61.2975 55.1547 60.8618 55.4679 60.5094C55.7645 60.1807 56.1479 59.8894 56.5929 59.6984C57.0388 59.492 57.5306 59.3926 58.0389 59.3926C58.5472 59.3926 58.9922 59.492 59.4615 59.6831C59.7971 59.8436 60.1172 60.0584 60.3523 60.3259C60.4147 60.3871 60.4772 60.4253 60.5631 60.4253C60.649 60.4253 60.7114 60.3871 60.7504 60.3489L62.9624 58.084C63.0014 58.0152 63.0248 57.954 63.0248 57.87C63.0248 57.7935 63.0014 57.7247 62.9624 57.6636C62.3916 57.0819 61.6647 56.6301 60.8363 56.3167C59.883 55.9651 58.9063 55.7732 57.9296 55.7732C56.874 55.7732 55.8738 55.9651 54.9596 56.3167C54.0531 56.6683 53.2403 57.1659 52.5603 57.8317C51.8646 58.4975 51.3338 59.3086 50.9504 60.2419C50.5522 61.1752 50.3562 62.2384 50.3562 63.3789C50.3562 64.5195 50.5522 65.5369 50.9269 66.4702C51.3103 67.4111 51.8412 68.2221 52.5213 68.8803C53.1779 69.569 53.9829 70.0888 54.8971 70.4641C55.8114 70.8157 56.8037 71 57.8671 71C59.0546 71 60.1172 70.7928 61.0089 70.3571C61.813 69.9818 62.4931 69.485 63.0873 68.865C63.1731 68.758 63.1731 68.5737 63.0638 68.4667ZM50.2313 70.6246L44.4404 55.9422C44.3936 55.8343 44.3077 55.7732 44.2296 55.7732H40.9395C40.8302 55.7732 40.7435 55.8343 40.7044 55.9422L34.8433 70.6476C34.8277 70.7316 34.8277 70.8157 34.8667 70.8998C34.9136 70.9609 34.9994 71 35.0775 71H38.751C38.8603 71 38.9384 70.938 38.9852 70.8386L39.9385 68.1151H45.0112L46.0503 70.8386C46.0737 70.938 46.1752 71 46.2611 71H50.0205C50.0951 71 50.1575 70.9754 50.2009 70.9321C50.2452 70.8887 50.2703 70.8276 50.2703 70.7546C50.2703 70.7087 50.2547 70.6705 50.2313 70.6246ZM41.0878 64.7488L42.5104 60.7166L43.9087 64.7488H41.0878ZM34.2968 65.0621C34.1242 64.6486 33.9134 64.274 33.6168 63.9607C33.3427 63.6465 32.9992 63.4019 32.6158 63.1879C32.4518 63.1114 32.2801 63.0265 32.0927 62.9654C32.5533 62.7132 32.9367 62.3998 33.2568 62.0091C33.7261 61.4274 33.9525 60.6775 33.9525 59.8054C33.9525 59.0173 33.8041 58.3523 33.4919 57.8317C33.1709 57.3111 32.7494 56.8984 32.241 56.5842C31.7484 56.2938 31.2019 56.0874 30.5843 55.9651C29.9901 55.8343 29.4115 55.7732 28.8416 55.7732H23.1366C23.0117 55.7732 22.9016 55.8802 22.9016 56.0263V70.7546C22.9016 70.8998 23.0117 71 23.1366 71H28.8416C29.5451 71 30.2408 70.9151 30.9044 70.7699C31.5766 70.6246 32.1942 70.3801 32.7494 70.0276C33.2802 69.676 33.7261 69.1937 34.0618 68.6128C34.3827 68.0311 34.5466 67.3041 34.5466 66.4702C34.5466 65.9572 34.4686 65.4757 34.2968 65.0621ZM26.7234 59.1013H28.185C28.8651 59.1013 29.3725 59.2016 29.6934 59.4079C29.9901 59.599 30.1384 59.8894 30.1384 60.2801C30.1384 60.7395 29.9901 61.0529 29.6934 61.2822C29.3959 61.5276 28.9275 61.6346 28.3333 61.6346H26.7234V59.1013ZM30.4125 66.8676C30.2876 67.0748 30.1384 67.22 29.9433 67.3271C29.7325 67.4264 29.4827 67.5105 29.2242 67.5563C28.9509 67.5946 28.6699 67.6328 28.4192 67.6328H26.7234V64.7717H28.3958C29.0993 64.7717 29.67 64.8711 30.076 65.0851C30.436 65.2914 30.6077 65.6209 30.6077 66.1407C30.6077 66.432 30.5374 66.6842 30.4125 66.8676ZM86.9707 35.1299C86.923 35.0459 86.8371 35 86.7357 35H82.6406C82.5313 35 82.4688 35.0459 82.4064 35.1299L79.5847 39.7821L76.7404 35.1299C76.7014 35.0459 76.6155 35 76.5296 35H72.4111C72.3244 35 72.2463 35.0459 72.1995 35.1299C72.137 35.2064 72.137 35.2904 72.1995 35.3754L77.5298 44.1437V49.9814C77.5298 50.1266 77.6547 50.226 77.7796 50.226H81.3282C81.4531 50.226 81.5546 50.1266 81.5546 49.9814V44.2278L86.9707 35.3754C87.0098 35.2904 87.0098 35.2064 86.9707 35.1299ZM71.2696 46.615H65.1821V44.1819H70.5896C70.7622 44.1819 70.8871 44.0367 70.8871 43.8754V41.0449C70.8871 40.8844 70.7622 40.7383 70.5896 40.7383H65.1821V38.5736H70.9261C71.0744 38.5736 71.2072 38.4505 71.2072 38.2823V35.3142C71.2072 35.1452 71.0744 35 70.9261 35H61.6959C61.5476 35 61.3993 35.1452 61.3993 35.3142V49.9202C61.3993 50.0808 61.5476 50.226 61.6959 50.226H71.2696C71.4179 50.226 71.5671 50.0808 71.5671 49.9202V46.9055C71.5671 46.7373 71.4179 46.615 71.2696 46.615ZM59.0468 35H55.8816C55.6552 35 55.4601 35.1911 55.4601 35.4212V42.751L50.4733 35.2904C50.4342 35.1299 50.2625 35 50.0673 35H46.9099C46.6757 35 46.4884 35.1911 46.4884 35.4212V49.8132C46.4884 50.0425 46.6757 50.226 46.9099 50.226H50.0673C50.3015 50.226 50.4976 50.0425 50.4976 49.8132V42.4988L55.4991 49.9967C55.585 50.1419 55.7177 50.226 55.8816 50.226H59.0468C59.281 50.226 59.4693 50.0425 59.4693 49.8132V35.4212C59.4693 35.1911 59.281 35 59.0468 35ZM44.9175 39.4305C44.5341 38.5124 44.0032 37.7014 43.3466 37.0356C42.6665 36.3927 41.8772 35.8722 40.9473 35.5206C40.0331 35.1681 39.0399 35 37.9773 35C36.9147 35 35.9224 35.1681 35.0072 35.5206C34.093 35.8722 33.288 36.3927 32.6314 37.0356C31.9756 37.7014 31.4439 38.5124 31.0614 39.4305C30.7014 40.3638 30.5062 41.4041 30.5062 42.5675C30.5062 43.731 30.7014 44.7475 31.0614 45.6817C31.4439 46.615 31.9756 47.449 32.6314 48.1071C33.288 48.7721 34.093 49.3156 35.0072 49.6909C35.9224 50.0425 36.9147 50.226 37.9773 50.226C39.0399 50.226 40.0331 50.0425 40.9707 49.6909C41.8772 49.3156 42.6665 48.7721 43.3466 48.1071C44.0032 47.449 44.5341 46.615 44.9175 45.6817C45.2766 44.7475 45.4639 43.6843 45.4639 42.5675C45.4639 41.4508 45.2766 40.3638 44.9175 39.4305ZM41.2049 44.2049C41.0332 44.7017 40.7756 45.1153 40.478 45.4745C40.1658 45.8269 39.798 46.0944 39.3764 46.3008C38.954 46.4927 38.4856 46.5921 37.9773 46.5921C37.469 46.5921 37.0006 46.4927 36.5781 46.3008C36.1488 46.0944 35.7888 45.8269 35.4921 45.4745C35.1799 45.1153 34.9448 44.7017 34.773 44.2049C34.5857 43.7072 34.4998 43.1484 34.4998 42.5675C34.4998 41.9867 34.5857 41.4423 34.7496 40.9608C34.9214 40.4631 35.1564 40.0496 35.4765 39.7209C35.7732 39.3617 36.1488 39.0933 36.5781 38.887C37.0006 38.7035 37.469 38.5965 37.9773 38.5965C38.4856 38.5965 38.9774 38.7035 39.3998 38.887C39.8214 39.0933 40.1814 39.3617 40.478 39.698C40.799 40.0496 41.0332 40.4631 41.2049 40.9608C41.3689 41.4423 41.4782 41.9858 41.4782 42.5675C41.4782 43.1493 41.3689 43.7072 41.2049 44.2049ZM28.3646 35H23.887C23.7378 35 23.5894 35.107 23.5504 35.2522L20.8779 43.6461L18.0961 35.2522C18.0328 35.107 17.9078 35 17.7595 35H13.3444C13.1483 35 13 35.1682 13 35.3524V49.8744C13 50.0655 13.1483 50.226 13.3444 50.226H16.1652C16.271 50.226 16.3604 50.1861 16.4246 50.1215C16.4879 50.0578 16.5252 49.9703 16.5252 49.8744V49.8362L16.4627 41.6725L18.8611 48.8188C18.901 48.964 19.0494 49.0634 19.1977 49.0634H22.3004C22.4488 49.0634 22.5971 48.964 22.6361 48.8188L25.1213 41.6105L25.0588 49.8744C25.0588 49.9814 25.0979 50.0655 25.1603 50.1266C25.2228 50.1878 25.3086 50.226 25.4188 50.226H28.3646C28.5597 50.226 28.7245 50.0655 28.7245 49.8744V35.3524C28.7245 35.1682 28.5597 35 28.3646 35Z" fill="#006A63"/>
<path fill-rule="evenodd" clip-rule="evenodd" d="M94.7772 100.154H90.2077V98.2332H94.2691C94.4006 98.2332 94.4929 98.1226 94.4929 97.9875V95.7668C94.4929 95.6326 94.4006 95.5212 94.2691 95.5212H90.2077V93.8138H94.5236C94.6388 93.8138 94.7311 93.719 94.7311 93.5848V91.2448C94.7311 91.1185 94.6388 91 94.5236 91H87.6002C87.485 91 87.3774 91.1185 87.3774 91.2448V102.754C87.3774 102.881 87.485 103 87.6002 103H94.7772C94.8924 103 95 102.881 95 102.754V100.383C95 100.249 94.8924 100.154 94.7772 100.154ZM86.2769 100.154H81.7083V98.2332H85.7621C85.8927 98.2332 85.9849 98.1226 85.9849 97.9875V95.7668C85.9849 95.6326 85.8927 95.5212 85.7621 95.5212H81.7083V93.8138H86.0233C86.1309 93.8138 86.2308 93.719 86.2308 93.5848V91.2448C86.2308 91.1185 86.1309 91 86.0233 91H79.0923C78.977 91 78.8694 91.1185 78.8694 91.2448V102.754C78.8694 102.881 78.977 103 79.0923 103H86.2769C86.3853 103 86.5006 102.881 86.5006 102.754V100.383C86.5006 100.249 86.3853 100.154 86.2769 100.154ZM78.0694 91H69.6315C69.5384 91 69.4539 91.0869 69.4539 91.1974V93.5848C69.4539 93.7032 69.5384 93.7822 69.6315 93.7822H72.3388V102.802C72.3388 102.896 72.4157 103 72.5309 103H75.193C75.3006 103 75.3851 102.896 75.3851 102.802V93.7822H78.0694C78.1847 93.7822 78.2615 93.7032 78.2615 93.5848V91.1974C78.2615 91.0869 78.1847 91 78.0694 91ZM67.6926 91H65.3156C65.1389 91 65.0006 91.15 65.0006 91.3317V97.1101L61.2542 91.229C61.2234 91.1027 61.0928 91 60.9545 91H58.5775C58.4 91 58.2616 91.15 58.2616 91.3317V102.667C58.2616 102.849 58.4 103 58.5775 103H60.9545C61.1312 103 61.2695 102.849 61.2695 102.667V96.9127L62.5007 98.8447L65.0313 102.818C65.0928 102.936 65.185 103 65.3156 103H67.6926C67.8616 103 68.0076 102.849 68.0076 102.667V91.3317C68.0076 91.15 67.8616 91 67.6926 91ZM58.1464 102.707L56.3458 97.9129L53.8006 91.1342C53.7699 91.0474 53.7084 91 53.6384 91H51.1769C51.0924 91 51.0309 91.0474 51.0002 91.1342L47.6243 100.027L46.6007 102.723C46.5853 102.786 46.5853 102.849 46.616 102.92C46.6544 102.968 46.7159 103 46.7774 103H49.5308C49.6154 103 49.6777 102.952 49.7084 102.865L50.2839 101.141L50.423 100.723H54.2309L55.0079 102.865C55.0309 102.952 55.1078 103 55.1692 103H57.9927C58.0465 103 58.0926 102.98 58.125 102.946C58.1575 102.911 58.1771 102.86 58.1771 102.802C58.1771 102.77 58.1618 102.739 58.1464 102.707ZM52.3543 94.8973L53.4002 98.0752H51.2854L52.3543 94.8973ZM46.5392 102.707L43.971 98.0814L43.8925 97.9401C44.5157 97.6953 45.0084 97.3163 45.3772 96.8101C45.793 96.2406 46.0004 95.537 46.0004 94.6991C46.0004 94.0121 45.8698 93.4268 45.6308 92.9522C45.3926 92.4784 45.0545 92.0827 44.6617 91.7905C44.2468 91.5063 43.7849 91.3001 43.2931 91.1816C42.7928 91.0711 42.2694 91 41.7623 91H37.7315C37.6231 91 37.5232 91.0869 37.5232 91.1974V102.802C37.5232 102.896 37.6231 103 37.7315 103H40.2161C40.3313 103 40.4082 102.896 40.4082 102.802V98.399H40.9623L43.2077 102.881C43.2385 102.952 43.3085 103 43.3853 103H46.3616C46.4461 103 46.5084 102.952 46.5392 102.896C46.5699 102.833 46.5699 102.754 46.5392 102.707ZM40.3928 93.5058H41.5847C41.7623 93.5058 41.9544 93.5216 42.1465 93.5532C42.3309 93.569 42.4922 93.6401 42.6391 93.719C42.7774 93.798 42.8927 93.9006 42.9695 94.0437C43.0694 94.1937 43.1155 94.3753 43.1155 94.6201C43.1155 94.8816 43.0694 95.0948 42.9695 95.2369C42.8619 95.4027 42.7467 95.5212 42.593 95.6168C42.4308 95.6958 42.2387 95.7668 42.0466 95.7984C41.8391 95.83 41.6308 95.8458 41.4233 95.8458H40.3928V93.5058ZM37.4156 102.707L36.0709 99.1325L33.0622 91.1342C33.0315 91.0474 32.97 91 32.9077 91H30.4385C30.354 91 30.2925 91.0474 30.2618 91.1342L29.2919 93.6936L25.8699 102.723C25.8545 102.786 25.8545 102.849 25.8853 102.92C25.916 102.968 25.9775 103 26.039 103H28.8001C28.8769 103 28.9393 102.952 28.97 102.865L29.6923 100.723H33.4925L34.2771 102.865C34.2925 102.952 34.3693 103 34.4308 103H37.2543C37.3081 103 37.3559 102.98 37.3909 102.946C37.425 102.911 37.4464 102.86 37.4464 102.802C37.4464 102.77 37.431 102.739 37.4156 102.707ZM30.5469 98.0752L31.5655 95.0474L31.6159 94.8973L31.7141 95.193L32.6694 98.0752H30.5469ZM24.877 91H22.3617C22.2541 91 22.1389 91.1027 22.1389 91.229V98.0033C22.1389 98.3042 22.1081 98.5648 22.0467 98.8254C21.9775 99.0711 21.8853 99.2843 21.7384 99.4817C21.6155 99.6554 21.4388 99.8221 21.2159 99.9248C21.0085 100.035 20.7387 100.098 20.4236 100.098C20.1086 100.098 19.8465 100.035 19.6236 99.9248C19.4008 99.8221 19.2386 99.68 19.1003 99.4817C18.9696 99.2843 18.8774 99.0711 18.7929 98.8254C18.7314 98.5648 18.7007 98.2884 18.7007 98.0033V91.229C18.7007 91.1027 18.6008 91 18.477 91H15.9925C15.8618 91 15.7543 91.1027 15.7543 91.229V98.2332C15.7543 98.9368 15.8618 99.5764 16.0847 100.17C16.293 100.739 16.6157 101.244 17.0085 101.672C17.4081 102.082 17.9007 102.423 18.477 102.652C19.0465 102.881 19.7005 103 20.4006 103C21.1007 103 21.7538 102.881 22.331 102.652C22.9081 102.423 23.4161 102.082 23.8157 101.672C24.2238 101.244 24.5465 100.739 24.7694 100.17C24.9931 99.5764 25.1007 98.9368 25.1007 98.2332V91.229C25.1007 91.1027 24.9931 91 24.877 91ZM14.3848 95.7984H10.9082C10.8006 95.7984 10.7084 95.8932 10.7084 96.0274V98.1542C10.7084 98.2884 10.8006 98.3832 10.9082 98.3832H12.0617V100.004C11.9003 100.067 11.7236 100.114 11.5468 100.154C11.3078 100.201 11.0388 100.217 10.7852 100.217C10.3233 100.217 9.92377 100.154 9.57714 99.9879C9.22367 99.8221 8.92314 99.608 8.7003 99.3317C8.4621 99.0553 8.28536 98.707 8.15388 98.32C8.03094 97.9243 7.96178 97.4821 7.96178 96.9917C7.96178 96.5337 8.0463 96.0906 8.16925 95.6958C8.3161 95.3238 8.5082 94.9763 8.74641 94.6991C8.98461 94.4069 9.26977 94.1937 9.59251 94.0279C9.92377 93.8848 10.2772 93.798 10.67 93.798C11.1157 93.798 11.5315 93.8848 11.8849 94.0594C12.1846 94.2253 12.4544 94.4227 12.6619 94.6517C12.6926 94.6991 12.7618 94.7306 12.8079 94.7306H12.8232C12.8847 94.7149 12.9462 94.6833 12.9846 94.6359L14.3848 92.6521C14.4616 92.5574 14.4463 92.4231 14.3541 92.3442C13.9545 91.9643 13.4465 91.6563 12.8386 91.4106C12.1539 91.15 11.3923 91 10.5769 91C9.8162 91 9.06231 91.15 8.39294 91.4264C7.72357 91.7037 7.12336 92.1143 6.63158 92.6205C6.1159 93.1426 5.72315 93.7822 5.43116 94.5174C5.14685 95.2606 5 96.0906 5 96.9917C5 97.8927 5.14685 98.707 5.43116 99.4501C5.7001 100.185 6.10053 100.818 6.59231 101.348C7.09263 101.869 7.69284 102.281 8.39294 102.573C9.07767 102.849 9.84693 103 10.6546 103C11.4623 103 12.1692 102.92 12.8232 102.739C13.4465 102.557 14.0006 102.344 14.477 102.082C14.5462 102.035 14.5931 101.964 14.5931 101.885V96.0274C14.5931 95.8932 14.4924 95.7984 14.3848 95.7984Z" fill="white"/>
<path fill-rule="evenodd" clip-rule="evenodd" d="M44.555 79.5331H42.8551L42.3278 78L41.8079 79.5331H40.108L41.489 80.4747L40.9616 82L42.3278 81.0513L43.7014 82L43.174 80.4747L44.555 79.5331ZM49.6622 79.5331H47.9623L47.4431 78L46.9232 79.5331H45.2233L46.5969 80.4747L46.0696 82L47.4431 81.0513L48.8159 82L48.2894 80.4747L49.6622 79.5331ZM54.7775 79.5331H53.0776L52.5577 78L52.0311 79.5331H50.3304L51.7114 80.4747L51.1841 82L52.5577 81.0513L53.9313 82L53.3965 80.4747L54.7775 79.5331ZM59.8855 79.5331H58.1856L57.6656 78L57.1457 79.5331H55.4458L56.8194 80.4747L56.292 82L57.6656 81.0513L59.0392 82L58.5119 80.4747L59.8855 79.5331ZM65 79.5331H63.3001L62.781 78L62.2536 79.5331H60.5611L61.9339 80.4747L61.4074 82L62.781 81.0513L64.1538 82L63.6272 80.4747L65 79.5331ZM39.4397 79.5331H37.7398L37.2198 78L36.7007 79.5331H35L36.3736 80.4747L35.8471 82L37.2198 81.0513L38.5934 82L38.0661 80.4747L39.4397 79.5331Z" fill="white"/>
<path d="M29.6872 23.0731L27.1445 22.7545C27.356 22.1877 27.7619 21.7539 28.3633 21.4524C28.9647 21.1508 29.8158 21 30.9166 21C32.18 21 33.0938 21.1649 33.658 21.494C34.2211 21.8237 34.5038 22.2375 34.5038 22.7359C34.5038 23.0285 34.389 23.293 34.1606 23.5299C33.9311 23.7669 33.5857 23.9749 33.1235 24.1531C33.4975 24.2177 33.7844 24.2935 33.9821 24.3797C34.303 24.5186 34.5537 24.7006 34.7322 24.9271C34.9107 25.1537 35 25.4233 35 25.7375C35 26.1319 34.8523 26.5092 34.5569 26.871C34.2615 27.2327 33.8365 27.5112 33.2818 27.7066C32.7272 27.9019 31.9983 28 31.0951 28C30.1919 28 29.5193 27.9279 29.0114 27.7831C28.5035 27.6383 28.0849 27.4266 27.7565 27.148C27.4282 26.8695 27.1764 26.5196 27 26.0977L29.6883 25.8482C29.7935 26.227 29.9582 26.4892 30.1802 26.6355C30.4023 26.7818 30.686 26.8546 31.0292 26.8546C31.3905 26.8546 31.6912 26.7625 31.9313 26.5776C32.1715 26.3926 32.2915 26.1468 32.2915 25.8385C32.2915 25.5302 32.1757 25.2814 31.9451 25.1091C31.7135 24.9368 31.4001 24.8506 31.0037 24.8506C30.7923 24.8506 30.5022 24.8877 30.1314 24.9613L30.2706 23.6176C30.4204 23.6332 30.5373 23.6406 30.6201 23.6406C30.9718 23.6406 31.2662 23.5619 31.5021 23.4051C31.7379 23.2484 31.8559 23.062 31.8559 22.8466C31.8559 22.6312 31.7677 22.4759 31.5913 22.3526C31.4149 22.2293 31.1727 22.1677 30.8645 22.1677C30.5564 22.1677 30.2897 22.2345 30.092 22.3682C29.8944 22.5019 29.7595 22.7366 29.6893 23.0724L29.6872 23.0731Z" fill="#006A63"/>
<path d="M36 24.4718C36 23.1855 36.2932 22.2847 36.8796 21.7708C37.466 21.2569 38.3587 21 39.5578 21C40.1338 21 40.6075 21.0564 40.9777 21.1686C41.348 21.2807 41.6496 21.427 41.8836 21.6075C42.1176 21.7872 42.3008 21.9766 42.4362 22.1756C42.5705 22.3739 42.6786 22.6056 42.7604 22.8707C42.9201 23.3757 43 23.9014 43 24.4495C43 25.6778 42.7369 26.5764 42.2116 27.146C41.6853 27.7156 40.7804 28 39.4948 28C38.7741 28 38.1924 27.9094 37.7479 27.7275C37.3043 27.5463 36.9397 27.2796 36.6559 26.9291C36.4492 26.6796 36.2885 26.3387 36.1738 25.9065C36.0592 25.4743 36.0019 24.9961 36.0019 24.4733L36 24.4718ZM38.3606 24.4762C38.3606 25.3377 38.4574 25.9266 38.65 26.2422C38.8427 26.5578 39.1218 26.7153 39.4883 26.7153C39.7298 26.7153 39.9393 26.6484 40.116 26.5147C40.2936 26.3811 40.4233 26.1694 40.5079 25.8798C40.5915 25.5902 40.6338 25.1394 40.6338 24.5275C40.6338 23.6289 40.537 23.0251 40.3443 22.7155C40.1517 22.4058 39.8623 22.2513 39.477 22.2513C39.0917 22.2513 38.7994 22.4088 38.6237 22.7244C38.4489 23.04 38.3606 23.6237 38.3606 24.4762Z" fill="#006A63"/>
</svg>
